<mxfile host="app.diagrams.net" modified="2020-05-21T06:15:51.393Z" agent="5.0 (Windows NT 10.0; Win64; x64) AppleWebKit/537.36 (KHTML, like Gecko) Chrome/81.0.4044.138 Safari/537.36" etag="L0JE0Zw2SUHEx59Nu_FM" version="13.0.9" type="github">
  <diagram id="XmfXhTiZD6NIz4OObXFa" name="Page-1">
    <mxGraphModel dx="1037" dy="548" grid="1" gridSize="10" guides="1" tooltips="1" connect="1" arrows="1" fold="1" page="1" pageScale="1" pageWidth="827" pageHeight="1169" math="0" shadow="0">
      <root>
        <mxCell id="0" />
        <mxCell id="1" parent="0" />
        <mxCell id="SLw_2JzoucQnl92RFOln-8" style="edgeStyle=orthogonalEdgeStyle;rounded=0;orthogonalLoop=1;jettySize=auto;html=1;entryX=0.5;entryY=0;entryDx=0;entryDy=0;" edge="1" parent="1" source="SLw_2JzoucQnl92RFOln-2" target="SLw_2JzoucQnl92RFOln-5">
          <mxGeometry relative="1" as="geometry" />
        </mxCell>
        <mxCell id="SLw_2JzoucQnl92RFOln-2" value="提交审核" style="rounded=1;whiteSpace=wrap;html=1;" vertex="1" parent="1">
          <mxGeometry x="360" y="200" width="80" height="40" as="geometry" />
        </mxCell>
        <mxCell id="SLw_2JzoucQnl92RFOln-7" style="edgeStyle=orthogonalEdgeStyle;rounded=0;orthogonalLoop=1;jettySize=auto;html=1;entryX=0.5;entryY=0;entryDx=0;entryDy=0;" edge="1" parent="1" source="SLw_2JzoucQnl92RFOln-3" target="SLw_2JzoucQnl92RFOln-2">
          <mxGeometry relative="1" as="geometry" />
        </mxCell>
        <mxCell id="SLw_2JzoucQnl92RFOln-3" value="资源录入者" style="shape=umlActor;verticalLabelPosition=bottom;labelBackgroundColor=#ffffff;verticalAlign=top;html=1;outlineConnect=0;" vertex="1" parent="1">
          <mxGeometry x="385" y="20" width="30" height="60" as="geometry" />
        </mxCell>
        <mxCell id="SLw_2JzoucQnl92RFOln-5" value="审核操作" style="rhombus;whiteSpace=wrap;html=1;" vertex="1" parent="1">
          <mxGeometry x="360" y="360" width="80" height="80" as="geometry" />
        </mxCell>
        <mxCell id="SLw_2JzoucQnl92RFOln-6" value="审核者" style="shape=umlActor;verticalLabelPosition=bottom;labelBackgroundColor=#ffffff;verticalAlign=top;html=1;outlineConnect=0;" vertex="1" parent="1">
          <mxGeometry x="710" y="370" width="30" height="60" as="geometry" />
        </mxCell>
        <mxCell id="SLw_2JzoucQnl92RFOln-9" value="不可通过" style="rounded=1;whiteSpace=wrap;html=1;" vertex="1" parent="1">
          <mxGeometry x="100" y="525" width="100" height="35" as="geometry" />
        </mxCell>
      </root>
    </mxGraphModel>
  </diagram>
</mxfile>
